# xmcd
#
# Track frame offsets:
#  150
#  19210
#  36855
#  51906
#  63417
#
# Disc length: 1058 seconds
#
# Revision: 2
# Processed by: cddbd v1.5.1PL0 Copyright (c) Steve Scherf et al.
# Submitted via: Collectorz.com_Music_Collector 6.9
#
DISCID=3f042005
DTITLE=Vicki Lee - Touch Of Life/Crossin' On Over2
DYEAR=2005
DGENRE=Blues -  Blues Female Vocalist
TTITLE0=No More
TTITLE1=Damien
TTITLE2=You Make Me Feel So Good
TTITLE3=Prepare Your Soul
TTITLE4=Thank You Sweet Jesus
EXTD=
EXTT0=
EXTT1=
EXTT2=
EXTT3=
EXTT4=
PLAYORDER=
